<svg id="Capa_1" enable-background="new 0 0 497 497" height="512" viewBox="0 0 497 497" width="512" xmlns="http://www.w3.org/2000/svg"><g><path d="m352 20v167h-352v-163c0-15.05 8.95-24 20-24h312c11.05 0 20 8.95 20 20z" fill="#50758d"/><path d="m352 187v248c0 11.05-8.95 20-20 20h-312c-11.05 0-20-8.95-20-16v-252z" fill="#50758d"/><path d="m50 133v-79c0-7.732 6.268-14 14-14h244c7.732 0 14 6.268 14 14v79c0 7.732-6.268 14-14 14h-244c-7.732 0-14-6.268-14-14z" fill="#2edffc"/><path d="m84 147h-20c-7.73 0-14-6.27-14-14v-79c0-7.73 6.27-14 14-14h20c-7.73 0-14 6.27-14 14v79c0 7.73 6.27 14 14 14z" fill="#27bdf3"/><path d="m321 241v80h-135.5v-94h121.5c7.73 0 14 6.27 14 14z" fill="#f5f5f5"/><path d="m185.5 227v94h-135.5v-78c0-9.73 6.27-16 14-16z" fill="#f5f5f5"/><path d="m185.5 321v94h-121.5c-7.73 0-14-6.27-14-12v-82z" fill="#f5f5f5"/><path d="m321 321v80c0 7.73-6.27 14-14 14h-121.5v-94z" fill="#f5f5f5"/><path d="m307 219.5h-121.5-121.5c-12.257 0-21.5 10.103-21.5 23.5v78 82c0 10.388 10.047 19.5 21.5 19.5h121.5 121.5c11.855 0 21.5-9.645 21.5-21.5v-80-80c0-11.855-9.645-21.5-21.5-21.5zm6.5 21.5v72.5h-120.5v-79h114c3.584 0 6.5 2.916 6.5 6.5zm-256 2c0-5.084 2.612-8.5 6.5-8.5h114v79h-120.5zm0 160v-74.5h120.5v79h-114c-3.755 0-6.5-3.158-6.5-4.5zm256-2c0 3.584-2.916 6.5-6.5 6.5h-114v-79h120.5z" fill="#e6e6e6"/><g fill="#2b597f"><path d="m150 375.5h-54c-4.143 0-7.5-3.357-7.5-7.5s3.357-7.5 7.5-7.5h54c4.143 0 7.5 3.357 7.5 7.5s-3.357 7.5-7.5 7.5z"/><path d="m145 266.5h-14.5v-14.5c0-4.143-3.357-7.5-7.5-7.5s-7.5 3.357-7.5 7.5v14.5h-14.5c-4.143 0-7.5 3.357-7.5 7.5s3.357 7.5 7.5 7.5h14.5v14.5c0 4.143 3.357 7.5 7.5 7.5s7.5-3.357 7.5-7.5v-14.5h14.5c4.143 0 7.5-3.357 7.5-7.5s-3.357-7.5-7.5-7.5z"/><path d="m259.107 274 10.253-10.253c2.929-2.93 2.929-7.678 0-10.607-2.93-2.928-7.678-2.928-10.607 0l-10.253 10.253-10.253-10.253c-2.93-2.928-7.678-2.928-10.607 0-2.929 2.93-2.929 7.678 0 10.607l10.253 10.253-10.253 10.253c-2.929 2.93-2.929 7.678 0 10.607 1.465 1.464 3.385 2.196 5.304 2.196s3.839-.732 5.304-2.196l10.253-10.253 10.253 10.253c1.465 1.464 3.385 2.196 5.304 2.196s3.839-.732 5.304-2.196c2.929-2.93 2.929-7.678 0-10.607z"/><path d="m283 125.5h-14c-9.649 0-17.5-7.851-17.5-17.5v-29c0-9.649 7.851-17.5 17.5-17.5h14c9.649 0 17.5 7.851 17.5 17.5v29c0 9.649-7.851 17.5-17.5 17.5zm-14-49c-1.379 0-2.5 1.121-2.5 2.5v29c0 1.379 1.121 2.5 2.5 2.5h14c1.379 0 2.5-1.121 2.5-2.5v-29c0-1.379-1.121-2.5-2.5-2.5z"/><path d="m352 187v-22.5h-317c-5.523 0-10-4.477-10-10v-130.5c0-15.05 8.95-24 20-24h-25c-11.05 0-20 8.95-20 24v140.5 22.5 252c0 7.05 8.95 16 20 16h25c-11.05 0-20-8.95-20-16v-242c0-5.523 4.477-10 10-10z"/></g><ellipse cx="394" cy="285" fill="#fad207" rx="103" ry="23"/><path d="m497 426.75v47.25c0 15-46.11 23-103 23s-103-8-103-23v-47.25c0 15 46.11 23 103 23s103-8 103-23z" fill="#fad207"/><path d="m497 379.5v47.25c0 15-46.11 23-103 23s-103-8-103-23v-47.25c0 15 46.11 23 103 23s103-8 103-23z" fill="#faa515"/><path d="m497 332.25v47.25c0 15-46.11 23-103 23s-103-8-103-23v-47.25c0 15 46.11 23 103 23s103-8 103-23z" fill="#fad207"/><path d="m497 285v47.25c0 15-46.11 23-103 23s-103-8-103-23v-47.25c0 15 46.11 23 103 23s103-8 103-23z" fill="#faa515"/><path d="m231.646 392.646c-1.919 0-3.839-.732-5.304-2.196-2.929-2.93-2.929-7.678 0-10.607l34-34c2.93-2.928 7.678-2.928 10.607 0 2.929 2.93 2.929 7.678 0 10.607l-34 34c-1.464 1.464-3.384 2.196-5.303 2.196z" fill="#2b597f"/><circle cx="234" cy="349" fill="#2b597f" r="7.5"/><circle cx="264" cy="387" fill="#2b597f" r="7.5"/></g></svg>